<mxfile host="app.diagrams.net" agent="Mozilla/5.0 (Windows NT 10.0; Win64; x64; rv:140.0) Gecko/20100101 Firefox/140.0" version="28.2.5">
  <diagram name="Страница — 1" id="PVcvhcrKpx2ce-pxrqn0">
    <mxGraphModel dx="786" dy="683" grid="1" gridSize="10" guides="1" tooltips="1" connect="1" arrows="1" fold="1" page="1" pageScale="1" pageWidth="827" pageHeight="1169" math="0" shadow="0">
      <root>
        <mxCell id="0" />
        <mxCell id="1" parent="0" />
        <mxCell id="I5ie5-oupX8FntIL-8Gf-20" style="edgeStyle=orthogonalEdgeStyle;rounded=0;orthogonalLoop=1;jettySize=auto;html=1;exitX=0.75;exitY=1;exitDx=0;exitDy=0;entryX=0;entryY=0.25;entryDx=0;entryDy=0;" edge="1" parent="1" source="I5ie5-oupX8FntIL-8Gf-22" target="I5ie5-oupX8FntIL-8Gf-24">
          <mxGeometry relative="1" as="geometry" />
        </mxCell>
        <mxCell id="I5ie5-oupX8FntIL-8Gf-21" style="edgeStyle=orthogonalEdgeStyle;rounded=0;orthogonalLoop=1;jettySize=auto;html=1;exitX=0.25;exitY=1;exitDx=0;exitDy=0;entryX=0;entryY=0.75;entryDx=0;entryDy=0;" edge="1" parent="1" source="I5ie5-oupX8FntIL-8Gf-22" target="I5ie5-oupX8FntIL-8Gf-24">
          <mxGeometry relative="1" as="geometry" />
        </mxCell>
        <mxCell id="I5ie5-oupX8FntIL-8Gf-22" value="Студент" style="rounded=0;whiteSpace=wrap;html=1;" vertex="1" parent="1">
          <mxGeometry x="170" y="370" width="120" height="60" as="geometry" />
        </mxCell>
        <mxCell id="I5ie5-oupX8FntIL-8Gf-23" style="edgeStyle=orthogonalEdgeStyle;rounded=0;orthogonalLoop=1;jettySize=auto;html=1;exitX=1;exitY=0.5;exitDx=0;exitDy=0;entryX=0;entryY=0.5;entryDx=0;entryDy=0;" edge="1" parent="1" source="I5ie5-oupX8FntIL-8Gf-24" target="I5ie5-oupX8FntIL-8Gf-26">
          <mxGeometry relative="1" as="geometry" />
        </mxCell>
        <mxCell id="I5ie5-oupX8FntIL-8Gf-24" value="Тренировка" style="rounded=0;whiteSpace=wrap;html=1;" vertex="1" parent="1">
          <mxGeometry x="390" y="550" width="120" height="60" as="geometry" />
        </mxCell>
        <mxCell id="I5ie5-oupX8FntIL-8Gf-25" style="edgeStyle=orthogonalEdgeStyle;rounded=0;orthogonalLoop=1;jettySize=auto;html=1;exitX=0.5;exitY=0;exitDx=0;exitDy=0;entryX=0.5;entryY=0;entryDx=0;entryDy=0;" edge="1" parent="1" source="I5ie5-oupX8FntIL-8Gf-26" target="I5ie5-oupX8FntIL-8Gf-24">
          <mxGeometry relative="1" as="geometry" />
        </mxCell>
        <mxCell id="I5ie5-oupX8FntIL-8Gf-26" value="Результат" style="rounded=0;whiteSpace=wrap;html=1;" vertex="1" parent="1">
          <mxGeometry x="620" y="550" width="120" height="60" as="geometry" />
        </mxCell>
        <mxCell id="I5ie5-oupX8FntIL-8Gf-27" value="Создать" style="text;html=1;align=center;verticalAlign=middle;resizable=0;points=[];autosize=1;strokeColor=none;fillColor=none;" vertex="1" parent="1">
          <mxGeometry x="270" y="530" width="70" height="30" as="geometry" />
        </mxCell>
        <mxCell id="I5ie5-oupX8FntIL-8Gf-28" value="Пройти" style="text;html=1;align=center;verticalAlign=middle;resizable=0;points=[];autosize=1;strokeColor=none;fillColor=none;" vertex="1" parent="1">
          <mxGeometry x="140" y="550" width="60" height="30" as="geometry" />
        </mxCell>
        <mxCell id="I5ie5-oupX8FntIL-8Gf-29" value="Записать" style="text;html=1;align=center;verticalAlign=middle;resizable=0;points=[];autosize=1;strokeColor=none;fillColor=none;" vertex="1" parent="1">
          <mxGeometry x="530" y="580" width="70" height="30" as="geometry" />
        </mxCell>
        <mxCell id="I5ie5-oupX8FntIL-8Gf-30" value="Использовать для создания" style="text;html=1;align=center;verticalAlign=middle;resizable=0;points=[];autosize=1;strokeColor=none;fillColor=none;" vertex="1" parent="1">
          <mxGeometry x="475" y="500" width="180" height="30" as="geometry" />
        </mxCell>
        <mxCell id="I5ie5-oupX8FntIL-8Gf-31" style="edgeStyle=orthogonalEdgeStyle;rounded=0;orthogonalLoop=1;jettySize=auto;html=1;exitX=0.75;exitY=0;exitDx=0;exitDy=0;entryX=0.842;entryY=-0.017;entryDx=0;entryDy=0;entryPerimeter=0;" edge="1" parent="1" source="I5ie5-oupX8FntIL-8Gf-26" target="I5ie5-oupX8FntIL-8Gf-22">
          <mxGeometry relative="1" as="geometry" />
        </mxCell>
        <mxCell id="I5ie5-oupX8FntIL-8Gf-32" value="Предоставить" style="text;html=1;align=center;verticalAlign=middle;resizable=0;points=[];autosize=1;strokeColor=none;fillColor=none;" vertex="1" parent="1">
          <mxGeometry x="450" y="320" width="100" height="30" as="geometry" />
        </mxCell>
        <mxCell id="I5ie5-oupX8FntIL-8Gf-33" value="" style="edgeStyle=isometricEdgeStyle;endArrow=none;html=1;rounded=0;" edge="1" parent="1">
          <mxGeometry width="50" height="100" relative="1" as="geometry">
            <mxPoint x="190" y="560" as="sourcePoint" />
            <mxPoint x="200" y="550" as="targetPoint" />
          </mxGeometry>
        </mxCell>
        <mxCell id="I5ie5-oupX8FntIL-8Gf-34" value="" style="edgeStyle=isometricEdgeStyle;endArrow=none;html=1;rounded=0;" edge="1" parent="1">
          <mxGeometry width="50" height="100" relative="1" as="geometry">
            <mxPoint x="280" y="564" as="sourcePoint" />
            <mxPoint x="290" y="554" as="targetPoint" />
          </mxGeometry>
        </mxCell>
        <mxCell id="I5ie5-oupX8FntIL-8Gf-35" value="" style="edgeStyle=isometricEdgeStyle;endArrow=none;html=1;rounded=0;" edge="1" parent="1">
          <mxGeometry width="50" height="100" relative="1" as="geometry">
            <mxPoint x="450" y="350" as="sourcePoint" />
            <mxPoint x="460" y="340" as="targetPoint" />
          </mxGeometry>
        </mxCell>
        <mxCell id="I5ie5-oupX8FntIL-8Gf-36" value="" style="edgeStyle=isometricEdgeStyle;endArrow=none;html=1;rounded=0;" edge="1" parent="1">
          <mxGeometry width="50" height="100" relative="1" as="geometry">
            <mxPoint x="475" y="530" as="sourcePoint" />
            <mxPoint x="485" y="520" as="targetPoint" />
          </mxGeometry>
        </mxCell>
        <mxCell id="I5ie5-oupX8FntIL-8Gf-37" value="" style="edgeStyle=isometricEdgeStyle;endArrow=none;html=1;rounded=0;" edge="1" parent="1">
          <mxGeometry width="50" height="100" relative="1" as="geometry">
            <mxPoint x="580" y="590" as="sourcePoint" />
            <mxPoint x="590" y="580" as="targetPoint" />
          </mxGeometry>
        </mxCell>
      </root>
    </mxGraphModel>
  </diagram>
</mxfile>
